<?xml version="1.0" standalone="no"?>
<!DOCTYPE svg PUBLIC "-//W3C//DTD SVG 20010904//EN"
 "http://www.w3.org/TR/2001/REC-SVG-20010904/DTD/svg10.dtd">
<svg version="1.0" xmlns="http://www.w3.org/2000/svg"
 width="500.000000pt" height="111.000000pt" viewBox="0 0 500.000000 111.000000"
 preserveAspectRatio="xMidYMid meet">

<g transform="translate(0.000000,111.000000) scale(0.100000,-0.100000)"
fill="#000000" stroke="none">
<path d="M611 1084 c-18 -24 -21 -41 -21 -141 0 -108 1 -115 25 -138 19 -20
34 -25 75 -25 l51 0 -3 -82 -3 -83 -72 -3 c-71 -3 -73 -2 -73 21 0 42 -24 52
-144 57 -90 4 -111 8 -111 20 0 12 17 16 80 18 114 4 115 5 115 163 0 127 0
128 -27 149 -25 20 -37 21 -146 18 -151 -4 -147 1 -147 -168 0 -138 6 -154 60
-162 18 -2 26 -10 28 -28 6 -43 27 -50 144 -50 101 0 108 -1 108 -20 0 -19 -7
-20 -114 -20 -82 0 -117 -4 -125 -13 -7 -9 -12 -96 -13 -248 l-3 -234 -42 -3
c-40 -3 -43 -5 -43 -31 0 -16 10 -37 23 -49 23 -22 24 -22 526 -22 l502 0 24
25 c14 13 25 36 25 50 0 23 -3 25 -45 25 -38 0 -45 3 -45 20 0 18 8 20 143 22
l142 3 3 38 3 37 -140 0 -141 0 0 103 0 102 137 0 138 0 3 38 3 38 -161 -3
c-119 -2 -157 0 -145 8 20 15 19 58 -1 78 -11 12 -36 16 -98 16 -87 0 -98 3
-89 26 3 10 22 14 58 14 58 0 85 19 85 62 0 23 4 26 58 31 85 9 92 22 92 167
0 166 1 165 -165 165 -166 0 -165 1 -165 -162 0 -63 4 -123 10 -133 12 -22 60
-40 107 -40 30 0 34 -3 31 -22 -3 -20 -10 -24 -59 -28 -64 -6 -89 -22 -89 -57
0 -24 0 -24 -102 -21 l-103 3 -3 83 -3 82 49 0 c35 0 57 6 76 21 26 20 26 22
26 145 0 111 -2 126 -20 144 -18 18 -33 20 -144 20 -123 0 -125 0 -145 -26z
m263 -20 c22 -21 23 -216 2 -233 -9 -8 -52 -11 -127 -9 l-114 3 -3 114 c-2 75
1 118 9 127 17 21 212 20 233 -2z m396 -43 c5 -11 10 -61 10 -111 0 -131 1
-130 -128 -130 -59 0 -114 5 -122 10 -12 7 -15 32 -15 120 0 88 3 113 15 120
8 5 63 10 122 10 96 0 108 -2 118 -19z m-782 -13 c8 -8 12 -48 12 -114 0 -117
-10 -137 -64 -132 -30 3 -31 5 -34 56 l-3 52 30 0 c24 0 31 4 31 20 0 15 -7
20 -26 20 -31 0 -28 20 4 35 30 13 28 35 -3 35 -28 0 -65 -32 -65 -55 0 -8 -9
-15 -20 -15 -13 0 -20 -7 -20 -20 0 -13 7 -20 20 -20 18 0 20 -7 20 -55 l0
-55 -53 0 c-29 0 -58 5 -65 12 -16 16 -16 220 0 236 16 16 220 16 236 0z m62
-488 l0 -60 -34 0 c-26 0 -40 -7 -56 -27 -19 -24 -20 -37 -18 -151 2 -89 7
-127 15 -129 7 -3 17 6 22 20 5 13 17 27 26 31 9 3 73 6 141 6 111 0 126 2
144 20 11 11 20 27 20 35 0 12 18 15 105 15 103 0 106 -1 115 -25 5 -14 16
-25 25 -25 13 0 15 20 15 131 l0 131 -31 29 c-49 46 -35 60 58 57 l78 -3 3
-42 c2 -27 -3 -51 -12 -65 -22 -31 -23 -255 -1 -284 8 -10 15 -31 15 -47 l0
-27 -422 2 -423 3 -3 220 c-1 121 0 225 2 232 4 9 35 13 111 13 l105 0 0 -60z
m190 39 c0 -11 -9 -32 -20 -46 -11 -14 -20 -32 -20 -39 0 -10 -15 -14 -55 -14
l-55 0 0 60 0 60 75 0 c69 0 75 -2 75 -21z m240 1 c0 -19 -7 -20 -105 -20 -81
0 -105 3 -105 13 0 24 12 27 112 27 91 0 98 -1 98 -20z m50 -79 c5 -11 10 -53
10 -93 l0 -73 -137 3 c-76 2 -144 5 -150 7 -14 5 -19 156 -6 168 3 4 66 7 139
7 122 0 134 -2 144 -19z m-330 -101 c0 -51 23 -89 61 -102 12 -4 12 -7 0 -21
-11 -14 -35 -17 -147 -17 l-134 0 0 83 c0 51 5 88 12 95 8 8 47 12 110 12 l98
0 0 -50z m570 -310 c0 -27 -54 -30 -517 -30 -475 0 -503 2 -503 32 0 4 230 8
510 8 321 0 510 -4 510 -10z"/>
<path d="M687 1033 c-4 -3 -7 -42 -7 -85 0 -61 3 -80 15 -84 17 -7 135 65 135
82 0 10 -118 94 -132 94 -2 0 -8 -3 -11 -7z m71 -71 l22 -17 -30 -18 -30 -18
0 35 c0 41 5 43 38 18z"/>
<path d="M1050 985 c0 -8 9 -15 20 -15 11 0 20 7 20 15 0 8 -9 15 -20 15 -11
0 -20 -7 -20 -15z"/>
<path d="M1057 943 c-4 -3 -7 -33 -7 -65 0 -51 2 -58 20 -58 18 0 20 7 20 65
0 48 -4 65 -13 65 -8 0 -17 -3 -20 -7z"/>
<path d="M1110 884 c0 -50 3 -64 15 -64 10 0 15 10 15 28 0 37 22 67 44 59 11
-4 16 -19 16 -47 0 -33 3 -40 20 -40 17 0 20 7 20 39 0 57 -26 84 -83 87 l-47
3 0 -65z"/>
<path d="M850 409 c0 -25 33 -22 38 4 2 12 -3 17 -17 17 -15 0 -21 -6 -21 -21z"/>
<path d="M922 413 c5 -26 38 -29 38 -4 0 15 -6 21 -21 21 -14 0 -19 -5 -17
-17z"/>
<path d="M550 335 c0 -8 9 -15 20 -15 11 0 20 7 20 15 0 8 -9 15 -20 15 -11 0
-20 -7 -20 -15z"/>
<path d="M630 335 c0 -8 7 -15 15 -15 8 0 15 7 15 15 0 8 -7 15 -15 15 -8 0
-15 -7 -15 -15z"/>
<path d="M1567 482 c-27 -28 -27 -29 -27 -181 l0 -152 38 3 37 3 3 70 3 70 99
-3 100 -3 0 -70 0 -70 38 3 37 3 3 154 c2 147 2 155 -19 178 -21 22 -29 23
-154 23 -131 0 -131 0 -158 -28z m249 -55 c1 -1 4 -14 8 -29 l6 -28 -105 0
-105 0 0 33 0 32 97 -3 c54 -2 98 -5 99 -5z"/>
<path d="M1956 485 c-26 -24 -26 -24 -26 -180 l0 -155 24 0 c55 0 56 1 56 149
l0 138 30 -5 30 -4 0 -139 0 -139 24 0 c55 0 56 1 56 149 l0 138 30 -5 30 -4
0 -140 0 -139 38 3 37 3 3 151 c2 140 1 153 -18 177 -21 27 -22 27 -154 27
-127 0 -134 -1 -160 -25z"/>
<path d="M2323 503 c-10 -3 -13 -49 -13 -179 l0 -175 38 3 37 3 3 70 3 70 100
-3 c116 -4 152 6 176 51 22 43 13 125 -17 149 -19 16 -41 18 -169 17 -80 0
-152 -3 -158 -6z m273 -76 c1 -1 4 -14 8 -29 l6 -28 -110 0 -110 0 0 33 0 32
102 -3 c57 -2 103 -5 104 -5z"/>
<path d="M2729 481 l-29 -29 0 -152 0 -151 38 3 37 3 3 70 3 70 99 -3 100 -3
0 -70 0 -70 38 3 37 3 3 157 c3 206 10 198 -169 198 l-131 0 -29 -29z m167
-51 c77 0 84 -2 84 -20 0 -11 5 -20 11 -20 5 0 7 -4 4 -10 -3 -6 -52 -10 -111
-10 l-104 0 0 36 c0 29 3 35 16 30 9 -3 54 -6 100 -6z"/>
<path d="M3097 503 c-4 -3 -7 -21 -7 -40 l0 -33 70 0 70 0 0 -84 c0 -46 3 -91
6 -100 5 -13 -6 -16 -68 -18 l-73 -3 -3 -38 -3 -37 178 2 178 3 3 38 3 37 -70
0 -71 0 0 103 0 102 67 0 68 0 3 38 3 37 -174 0 c-95 0 -177 -3 -180 -7z"/>
<path d="M3505 485 c-24 -23 -25 -29 -25 -157 0 -73 4 -138 8 -144 17 -26 56
-34 167 -34 64 0 125 5 136 10 33 18 49 64 49 140 l0 71 -107 -3 -108 -3 -3
-37 -3 -38 70 0 c55 0 71 -3 71 -14 0 -8 3 -21 6 -30 5 -14 -8 -16 -105 -16
l-111 0 0 103 0 102 132 -3 c117 -3 134 -2 145 14 7 10 13 28 13 41 l0 23
-155 0 c-152 0 -156 -1 -180 -25z"/>
<path d="M3876 488 c-13 -18 -16 -54 -16 -181 l0 -158 38 3 37 3 5 120 c4 101
7 116 17 95 11 -25 204 -220 217 -220 4 0 16 5 27 10 18 10 19 23 19 181 l0
170 -32 -3 -33 -3 0 -108 c0 -59 -2 -107 -5 -107 -3 0 -55 50 -115 110 -60 61
-117 110 -127 110 -9 0 -24 -10 -32 -22z"/>
<path d="M4276 479 c-37 -43 -37 -129 -1 -164 23 -24 30 -25 140 -25 93 0 115
-3 115 -14 0 -8 3 -21 6 -30 5 -13 -13 -16 -138 -18 l-143 -3 -3 -38 -3 -37
150 0 c146 0 150 1 180 26 29 24 31 31 31 88 0 52 -4 66 -23 84 -21 20 -34 22
-140 22 l-117 0 0 33 0 32 137 0 138 0 3 38 3 37 -155 0 -154 0 -26 -31z"/>
</g>
</svg>
