<?xml version="1.0" standalone="no"?>
<!DOCTYPE svg PUBLIC "-//W3C//DTD SVG 20010904//EN"
 "http://www.w3.org/TR/2001/REC-SVG-20010904/DTD/svg10.dtd">
<svg version="1.0" xmlns="http://www.w3.org/2000/svg"
 width="500.000000pt" height="108.000000pt" viewBox="0 0 500.000000 108.000000"
 preserveAspectRatio="xMidYMid meet">

<g transform="translate(0.000000,108.000000) scale(0.100000,-0.100000)"
fill="#000000" stroke="none">
<path d="M360 1030 l0 -50 60 0 60 0 0 -73 c0 -60 -4 -77 -19 -91 -39 -35 -65
-116 -67 -201 -1 -52 -7 -94 -19 -120 -36 -83 3 -235 83 -319 20 -21 57 -51
82 -67 29 -19 48 -40 55 -62 l10 -32 150 0 150 0 10 32 c7 22 26 43 55 62 46
29 110 92 127 124 9 17 26 19 169 20 l159 2 3 37 3 38 -140 0 -141 0 0 33 0
32 137 0 138 0 3 38 3 37 -140 0 -141 0 0 33 0 32 137 0 138 0 3 38 3 37 -153
0 c-109 0 -158 -4 -168 -12 -12 -11 -12 -10 -1 4 25 33 -18 180 -62 217 -13
10 -17 31 -17 87 l0 74 45 0 44 0 3 -72 c5 -120 23 -85 26 50 l3 122 -321 0
c-278 0 -320 -2 -320 -15 0 -13 41 -15 305 -15 298 0 305 0 305 -20 0 -20 -7
-20 -365 -20 -358 0 -365 0 -365 20 0 16 7 20 35 20 24 0 35 5 35 15 0 11 -12
15 -50 15 l-50 0 0 -50z m638 -112 l3 -58 -36 0 c-50 0 -48 -28 2 -32 30 -2
42 -10 65 -43 16 -22 35 -63 43 -90 l15 -49 -32 33 c-44 45 -85 61 -158 61
-63 0 -90 -9 -126 -42 -19 -17 -22 -17 -34 -3 -25 30 -69 45 -130 45 -70 0
-114 -16 -152 -55 -22 -21 -28 -24 -28 -11 0 25 28 86 56 123 l25 33 145 0
c121 0 144 2 144 15 0 13 -23 15 -145 15 l-145 0 0 53 c0 30 3 57 7 61 4 3
113 5 242 4 l236 -3 3 -57z m-291 -243 c31 -31 35 -40 30 -72 -15 -87 -111
-119 -168 -55 -44 49 -34 117 22 148 42 24 78 17 116 -21z m212 21 c56 -29 66
-99 22 -148 -77 -86 -213 10 -157 111 26 47 84 63 135 37z m-394 -26 c-45 -88
28 -199 124 -188 20 2 32 -5 57 -37 16 -22 39 -40 49 -40 10 0 33 18 49 40 25
32 37 39 57 37 96 -11 169 100 124 188 -19 38 -5 38 35 3 62 -56 68 -135 16
-214 -61 -91 -164 -134 -305 -127 -137 7 -225 59 -276 163 -24 48 -25 57 -15
96 7 24 26 57 45 76 42 42 61 44 40 3z m275 -177 c0 -4 -10 -17 -22 -30 l-22
-23 -23 22 c-29 27 -29 32 0 60 l22 23 23 -23 c12 -13 22 -26 22 -29z m-312
-97 c20 -17 22 -29 22 -125 l-1 -106 -24 28 c-20 23 -25 39 -25 83 0 40 -4 54
-12 52 -7 -3 -15 -15 -19 -29 -5 -21 -8 -16 -22 30 -19 63 -21 108 -7 147 l11
27 28 -44 c15 -24 38 -53 49 -63z m573 -64 c-6 -2 -11 -28 -11 -57 0 -43 -5
-60 -25 -82 l-24 -28 -1 104 c0 103 0 104 33 140 l32 36 3 -55 c2 -32 -1 -56
-7 -58z m-306 -27 c102 0 127 3 168 22 l47 22 0 -104 c0 -97 -2 -105 -22 -116
-18 -9 -24 -8 -37 9 -15 19 -27 20 -156 20 -129 0 -141 -1 -156 -20 -13 -17
-19 -18 -37 -9 -20 11 -22 19 -22 116 l0 104 48 -22 c40 -19 65 -22 167 -22z
m-89 -199 c8 -35 -4 -68 -24 -64 -17 3 -28 48 -18 74 9 23 35 16 42 -10z m69
-21 c0 -30 -4 -41 -17 -43 -15 -3 -18 4 -18 43 0 39 3 46 18 43 13 -2 17 -13
17 -43z m75 -1 c0 -38 -3 -45 -17 -42 -32 6 -30 88 2 88 11 0 15 -11 15 -46z
m75 1 c0 -45 -28 -63 -40 -25 -10 33 3 72 23 68 13 -2 17 -13 17 -43z"/>
<path d="M857 854 c-8 -8 1 -24 14 -24 5 0 9 7 9 15 0 15 -12 20 -23 9z"/>
<path d="M600 650 c-24 -24 -25 -39 -6 -66 14 -18 15 -18 22 -1 3 10 4 21 0
24 -3 3 -1 12 5 20 14 17 41 -1 33 -22 -3 -8 -2 -19 2 -26 8 -14 34 15 34 38
0 18 -37 53 -55 53 -8 0 -24 -9 -35 -20z"/>
<path d="M840 650 c-24 -24 -25 -39 -6 -66 14 -18 15 -18 22 -1 3 10 4 21 0
24 -3 3 -1 12 5 20 14 17 41 -1 33 -22 -3 -8 -2 -19 2 -26 8 -14 34 15 34 38
0 18 -37 53 -55 53 -8 0 -24 -9 -35 -20z"/>
<path d="M1467 603 c-4 -3 -7 -84 -7 -180 l0 -173 151 0 151 0 29 29 c29 29
29 30 29 154 0 111 -2 127 -21 151 l-20 26 -153 0 c-84 0 -156 -3 -159 -7z
m273 -158 c0 -46 3 -90 6 -99 5 -14 -7 -16 -100 -16 l-106 0 0 103 0 102 100
-3 100 -3 0 -84z"/>
<path d="M1853 603 c-10 -3 -13 -41 -13 -137 0 -139 10 -190 40 -206 10 -6 71
-10 135 -10 186 0 195 10 195 221 l0 140 -37 -3 -38 -3 0 -138 0 -137 -107 0
-108 0 0 140 0 140 -27 -1 c-16 0 -34 -3 -40 -6z"/>
<path d="M2259 581 c-29 -29 -29 -30 -29 -156 0 -121 1 -127 25 -151 24 -24
26 -24 177 -22 l153 3 3 38 3 37 -140 0 -141 0 0 103 0 102 137 0 138 0 3 38
3 37 -151 0 -152 0 -29 -29z"/>
<path d="M2647 582 c-27 -28 -27 -29 -27 -181 l0 -152 38 3 37 3 3 70 3 70 99
-3 100 -3 0 -70 0 -70 38 3 37 3 3 154 c2 147 2 155 -19 178 -21 22 -29 23
-154 23 -131 0 -131 0 -158 -28z m253 -67 c0 -7 3 -20 6 -29 5 -14 -7 -16
-100 -16 l-106 0 0 33 0 32 100 -3 c76 -3 100 -7 100 -17z"/>
<path d="M3017 603 c-4 -3 -7 -21 -7 -40 l0 -33 70 0 70 0 0 -140 0 -140 24 0
c55 0 56 2 56 149 l0 136 45 -3 c75 -6 95 3 95 43 l0 35 -173 0 c-96 0 -177
-3 -180 -7z"/>
<path d="M3402 601 c-8 -5 -12 -21 -10 -37 3 -29 4 -29 76 -32 l72 -3 0 -84
c0 -46 3 -90 6 -99 5 -14 -4 -16 -59 -16 -87 0 -97 -5 -97 -46 l0 -34 175 0
c162 0 175 1 185 19 5 11 10 29 10 40 0 18 -7 20 -72 23 l-73 3 -3 101 -3 100
62 -4 c68 -5 89 8 89 55 l0 23 -172 0 c-95 0 -179 -4 -186 -9z"/>
<path d="M3806 579 c-25 -29 -26 -36 -26 -155 0 -119 1 -126 25 -149 23 -24
30 -25 149 -25 119 0 126 1 155 26 l31 26 0 132 c0 179 3 176 -177 176 l-131
0 -26 -31z m251 -52 c0 -1 3 -46 5 -100 l3 -97 -102 0 -103 0 0 103 0 102 97
-3 c54 -2 99 -5 100 -5z"/>
<path d="M4186 594 c-13 -13 -16 -44 -16 -180 l0 -165 38 3 37 3 5 120 c4 66
7 113 8 105 2 -18 213 -230 228 -230 6 0 18 8 27 18 14 16 17 44 17 181 l0
162 -37 -3 -38 -3 0 -113 1 -112 -116 115 c-63 63 -121 115 -127 115 -6 0 -19
-7 -27 -16z"/>
</g>
</svg>
